<?xml version="1.0" encoding="UTF-8" standalone="no"?>
<!-- Created with Inkscape (http://www.inkscape.org/) -->

<svg
   width="100"
   height="100"
   viewBox="0 0 26.458333 26.458333"
   version="1.1"
   id="svg5"
   inkscape:export-filename="3ball.svg"
   inkscape:export-xdpi="96"
   inkscape:export-ydpi="96"
   sodipodi:docname="6ball.svg"
   xml:space="preserve"
   inkscape:version="1.2.1 (9c6d41e410, 2022-07-14)"
   xmlns:inkscape="http://www.inkscape.org/namespaces/inkscape"
   xmlns:sodipodi="http://sodipodi.sourceforge.net/DTD/sodipodi-0.dtd"
   xmlns:xlink="http://www.w3.org/1999/xlink"
   xmlns="http://www.w3.org/2000/svg"
   xmlns:svg="http://www.w3.org/2000/svg"><sodipodi:namedview
     id="namedview7"
     pagecolor="#ffffff"
     bordercolor="#000000"
     borderopacity="0.25"
     inkscape:showpageshadow="2"
     inkscape:pageopacity="0.0"
     inkscape:pagecheckerboard="0"
     inkscape:deskcolor="#d1d1d1"
     inkscape:document-units="mm"
     showgrid="false"
     inkscape:zoom="4.3"
     inkscape:cx="-4.5348837"
     inkscape:cy="55"
     inkscape:window-width="1920"
     inkscape:window-height="1007"
     inkscape:window-x="0"
     inkscape:window-y="0"
     inkscape:window-maximized="1"
     inkscape:current-layer="layer1" /><defs
     id="defs2"><rect
       x="0.23255814"
       y="0.23255814"
       width="99.534884"
       height="100.46512"
       id="rect2072" /><linearGradient
       inkscape:collect="always"
       id="linearGradient20002"><stop
         style="stop-color:#ffffff;stop-opacity:0;"
         offset="0"
         id="stop20000" /><stop
         style="stop-color:#ffffff;stop-opacity:0.19727892;"
         offset="1"
         id="stop19998" /></linearGradient><linearGradient
       inkscape:collect="always"
       id="linearGradient10226"><stop
         style="stop-color:#ffffff;stop-opacity:0.64965987;"
         offset="0"
         id="stop10222" /><stop
         style="stop-color:#ffffff;stop-opacity:0;"
         offset="1"
         id="stop10224" /></linearGradient><linearGradient
       inkscape:collect="always"
       xlink:href="#linearGradient10226"
       id="linearGradient10228"
       x1="105.3871"
       y1="0.34216642"
       x2="105.3871"
       y2="101.96544"
       gradientUnits="userSpaceOnUse"
       gradientTransform="matrix(0.11652675,0,0,0.12050656,0.92881609,0.92723492)" /><linearGradient
       inkscape:collect="always"
       xlink:href="#linearGradient20002"
       id="linearGradient19995"
       gradientUnits="userSpaceOnUse"
       gradientTransform="matrix(0.11652675,0,0,0.12136131,0.92881574,13.262424)"
       x1="105.3871"
       y1="0.34216642"
       x2="105.3871"
       y2="101.96544" /></defs><g
     inkscape:label="Layer 1"
     inkscape:groupmode="layer"
     id="layer1"><circle
       style="fill:#204020;fill-opacity:1;stroke-width:0.0355428"
       id="path1707"
       cx="13.229167"
       cy="13.229167"
       r="12.61737" /><ellipse
       style="fill:url(#linearGradient10228);fill-opacity:1;stroke-width:0.028203;stroke-dasharray:none"
       id="path4097"
       cx="13.229167"
       cy="7.0709872"
       rx="8.8714037"
       ry="6.1025181" /><ellipse
       style="fill:url(#linearGradient19995);fill-opacity:1;stroke-width:0.028303;stroke-dasharray:none"
       id="path4097-9"
       cx="13.229167"
       cy="19.449759"
       rx="8.8714037"
       ry="6.145803" /><circle
       style="fill:#ffffff;fill-opacity:1;stroke-width:0.0144489"
       id="circle14633"
       cx="13.229167"
       cy="13.229167"
       r="5.129189" /><g
       aria-label="3"
       id="text16315"
       style="font-size:6.42625px;-inkscape-font-specification:sans-serif;stroke-width:0.0301071"
       transform="translate(0.028969,0.03669179)"><g
         aria-label="6"
         id="text2230"
         style="font-size:6.35px;font-family:'Noto Serif';-inkscape-font-specification:'Noto Serif';text-align:center;text-anchor:middle;stroke:#000000;stroke-width:0"><path
           d="m 13.46071,10.842975 q 0.286565,0 0.521026,0.0749 0.237718,0.0749 0.42659,0.205154 l -0.328898,0.534051 q -0.276794,-0.185615 -0.608948,-0.185615 -0.420077,0 -0.683846,0.384256 -0.260513,0.384257 -0.293077,1.077872 0.20841,-0.247487 0.465666,-0.361461 0.257257,-0.117231 0.530795,-0.117231 0.348436,0 0.635,0.169333 0.286564,0.166077 0.455898,0.491718 0.172589,0.325641 0.172589,0.804334 0,0.468923 -0.195384,0.836897 -0.192128,0.364718 -0.537308,0.576385 -0.345179,0.20841 -0.801077,0.20841 -0.579641,0 -0.93459,-0.286564 -0.354948,-0.286564 -0.517769,-0.775026 -0.159564,-0.491718 -0.159564,-1.103923 0,-0.755487 0.221436,-1.325359 0.221436,-0.569872 0.638256,-0.889 0.416821,-0.319128 0.993205,-0.319128 z m -0.175846,2.230641 q -0.227948,0 -0.433102,0.120487 -0.201898,0.117231 -0.354949,0.325641 0.01303,0.706641 0.175846,1.048564 0.162821,0.341923 0.55359,0.341923 0.338667,0 0.501487,-0.267025 0.162821,-0.267026 0.162821,-0.677334 0,-0.494974 -0.162821,-0.693615 -0.16282,-0.198641 -0.442872,-0.198641 z"
           style="font-weight:600;font-family:'Fira Code';-inkscape-font-specification:'Fira Code Semi-Bold'"
           id="path11090" /></g></g></g></svg>
