<?xml version="1.0" standalone="no"?>
<!DOCTYPE svg PUBLIC "-//W3C//DTD SVG 20010904//EN"
 "http://www.w3.org/TR/2001/REC-SVG-20010904/DTD/svg10.dtd">
<svg version="1.0" xmlns="http://www.w3.org/2000/svg"
 width="240.000000pt" height="240.000000pt" viewBox="0 0 240.000000 240.000000"
 preserveAspectRatio="xMidYMid meet">
<metadata>
Created by potrace 1.15, written by Peter Selinger 2001-2017
</metadata>
<g transform="translate(0.000000,240.000000) scale(0.100000,-0.100000)"
fill="#000000" stroke="none">
<path d="M1657 2155 c-74 -26 -117 -88 -117 -168 0 -57 14 -94 48 -131 54 -58
149 -73 221 -36 137 69 131 269 -9 329 -56 24 -89 26 -143 6z"/>
<path d="M2024 1870 c-30 -12 -35 -31 -43 -160 -11 -189 -28 -201 -311 -224
-107 -8 -244 -18 -305 -20 l-110 -6 110 26 c152 34 191 54 198 101 12 74 -34
118 -114 108 -75 -9 -319 -102 -579 -220 l-125 -57 -150 -13 c-82 -7 -203 -16
-267 -20 -106 -7 -118 -9 -118 -26 0 -17 8 -18 107 -13 803 38 1169 48 1242
35 92 -18 303 -15 376 4 113 30 198 106 224 200 16 60 17 206 2 242 -18 45
-83 65 -137 43z"/>
<path d="M71 1404 c-24 -30 -25 -38 -11 -65 10 -17 7 -19 -25 -19 l-35 0 0
-65 0 -65 460 0 460 0 0 -505 0 -505 70 0 70 0 0 511 0 512 133 -7 c72 -3 137
-3 143 1 26 18 36 54 24 84 l-12 29 -522 0 c-286 0 -551 3 -588 6 l-66 7 5 32
c11 66 -65 100 -106 49z"/>
<path d="M1640 1253 c-17 -14 -36 -38 -42 -52 -27 -72 -45 -275 -58 -660 -12
-352 -8 -394 31 -307 62 141 229 766 237 888 5 90 -6 115 -61 142 -48 22 -70
20 -107 -11z"/>
<path d="M1867 1241 c-36 -43 -42 -88 -28 -200 23 -179 172 -835 195 -858 27
-27 36 105 36 511 0 529 -7 564 -122 574 -51 4 -56 2 -81 -27z"/>
</g>
</svg>
